<svg width="490" height="253" viewBox="0 0 490 253" fill="none" xmlns="http://www.w3.org/2000/svg">
<path d="M59.0455 118V59.8182H65.75V81.2955H66.3182C66.8106 80.5379 67.4924 79.572 68.3636 78.3977C69.2538 77.2045 70.5227 76.1439 72.1705 75.2159C73.8371 74.2689 76.0909 73.7955 78.9318 73.7955C82.6061 73.7955 85.8447 74.714 88.6477 76.5511C91.4508 78.3883 93.6383 80.9924 95.2102 84.3636C96.7822 87.7348 97.5682 91.7121 97.5682 96.2955C97.5682 100.917 96.7822 104.922 95.2102 108.312C93.6383 111.684 91.4602 114.297 88.6761 116.153C85.892 117.991 82.6818 118.909 79.0455 118.909C76.2424 118.909 73.9981 118.445 72.3125 117.517C70.6269 116.57 69.3295 115.5 68.4205 114.307C67.5114 113.095 66.8106 112.091 66.3182 111.295H65.5227V118H59.0455ZM65.6364 96.1818C65.6364 99.4773 66.1193 102.384 67.0852 104.903C68.0511 107.403 69.4621 109.364 71.3182 110.784C73.1742 112.186 75.447 112.886 78.1364 112.886C80.9394 112.886 83.2784 112.148 85.1534 110.67C87.0473 109.174 88.4678 107.167 89.4148 104.648C90.3807 102.11 90.8636 99.2879 90.8636 96.1818C90.8636 93.1136 90.3902 90.3485 89.4432 87.8864C88.5152 85.4053 87.1042 83.4451 85.2102 82.0057C83.3352 80.5473 80.9773 79.8182 78.1364 79.8182C75.4091 79.8182 73.1174 80.5095 71.2614 81.892C69.4053 83.2557 68.0038 85.1686 67.0568 87.6307C66.1098 90.0739 65.6364 92.9242 65.6364 96.1818ZM107.824 118V74.3636H114.301V80.9545H114.756C115.551 78.7955 116.991 77.0436 119.074 75.6989C121.157 74.3542 123.506 73.6818 126.119 73.6818C126.612 73.6818 127.227 73.6913 127.966 73.7102C128.705 73.7292 129.263 73.7576 129.642 73.7955V80.6136C129.415 80.5568 128.894 80.4716 128.08 80.358C127.284 80.2254 126.441 80.1591 125.551 80.1591C123.43 80.1591 121.536 80.6042 119.869 81.4943C118.222 82.3655 116.915 83.5777 115.949 85.1307C115.002 86.6648 114.528 88.4167 114.528 90.3864V118H107.824ZM150.43 119.023C147.665 119.023 145.156 118.502 142.902 117.46C140.648 116.4 138.858 114.875 137.533 112.886C136.207 110.879 135.544 108.455 135.544 105.614C135.544 103.114 136.036 101.087 137.021 99.5341C138.006 97.9621 139.322 96.7311 140.97 95.8409C142.618 94.9508 144.436 94.2879 146.425 93.8523C148.432 93.3977 150.449 93.0379 152.476 92.7727C155.127 92.4318 157.277 92.1761 158.925 92.0057C160.591 91.8163 161.804 91.5038 162.561 91.0682C163.338 90.6326 163.726 89.875 163.726 88.7955V88.5682C163.726 85.7652 162.959 83.5871 161.425 82.0341C159.91 80.4811 157.608 79.7045 154.521 79.7045C151.321 79.7045 148.811 80.4053 146.993 81.8068C145.175 83.2083 143.896 84.7045 143.158 86.2955L136.794 84.0227C137.93 81.3712 139.446 79.3068 141.339 77.8295C143.252 76.3333 145.336 75.2917 147.589 74.7045C149.862 74.0985 152.097 73.7955 154.294 73.7955C155.696 73.7955 157.305 73.9659 159.124 74.3068C160.961 74.6288 162.732 75.3011 164.436 76.3239C166.16 77.3466 167.589 78.8902 168.726 80.9545C169.862 83.0189 170.43 85.7841 170.43 89.25V118H163.726V112.091H163.385C162.93 113.038 162.173 114.051 161.112 115.131C160.052 116.21 158.641 117.129 156.879 117.886C155.118 118.644 152.968 119.023 150.43 119.023ZM151.453 113C154.105 113 156.339 112.479 158.158 111.438C159.995 110.396 161.377 109.051 162.305 107.403C163.252 105.756 163.726 104.023 163.726 102.205V96.0682C163.442 96.4091 162.817 96.7216 161.851 97.0057C160.904 97.2708 159.805 97.5076 158.555 97.7159C157.324 97.9053 156.122 98.0758 154.947 98.2273C153.792 98.3598 152.855 98.4735 152.135 98.5682C150.393 98.7955 148.764 99.1648 147.249 99.6761C145.752 100.169 144.54 100.917 143.612 101.92C142.703 102.905 142.249 104.25 142.249 105.955C142.249 108.284 143.11 110.045 144.834 111.239C146.576 112.413 148.783 113 151.453 113ZM189.372 91.75V118H182.668V74.3636H189.145V81.1818H189.713C190.736 78.9659 192.289 77.1856 194.372 75.8409C196.455 74.4773 199.145 73.7955 202.44 73.7955C205.395 73.7955 207.98 74.4015 210.196 75.6136C212.412 76.8068 214.135 78.625 215.366 81.0682C216.598 83.4924 217.213 86.5606 217.213 90.2727V118H210.509V90.7273C210.509 87.2992 209.618 84.6288 207.838 82.7159C206.058 80.7841 203.615 79.8182 200.509 79.8182C198.368 79.8182 196.455 80.2822 194.77 81.2102C193.103 82.1383 191.787 83.4924 190.821 85.2727C189.855 87.053 189.372 89.2121 189.372 91.75ZM247.192 118.909C243.101 118.909 239.578 117.943 236.624 116.011C233.669 114.08 231.396 111.419 229.805 108.028C228.214 104.638 227.419 100.765 227.419 96.4091C227.419 91.9773 228.233 88.0663 229.862 84.6761C231.51 81.267 233.802 78.6061 236.737 76.6932C239.692 74.7614 243.139 73.7955 247.078 73.7955C250.146 73.7955 252.911 74.3636 255.374 75.5C257.836 76.6364 259.853 78.2273 261.425 80.2727C262.997 82.3182 263.972 84.7045 264.351 87.4318H257.646C257.135 85.4432 255.999 83.6818 254.237 82.1477C252.495 80.5947 250.146 79.8182 247.192 79.8182C244.578 79.8182 242.286 80.5 240.317 81.8636C238.366 83.2083 236.841 85.1117 235.743 87.5739C234.663 90.017 234.124 92.8864 234.124 96.1818C234.124 99.553 234.654 102.489 235.714 104.989C236.794 107.489 238.309 109.43 240.26 110.812C242.23 112.195 244.54 112.886 247.192 112.886C248.934 112.886 250.516 112.583 251.936 111.977C253.357 111.371 254.559 110.5 255.544 109.364C256.529 108.227 257.23 106.864 257.646 105.273H264.351C263.972 107.848 263.035 110.169 261.538 112.233C260.061 114.278 258.101 115.907 255.658 117.119C253.233 118.312 250.411 118.909 247.192 118.909ZM280.857 91.75V118H274.152V59.8182H280.857V81.1818H281.425C282.447 78.928 283.982 77.1383 286.027 75.8125C288.091 74.4678 290.838 73.7955 294.266 73.7955C297.239 73.7955 299.843 74.392 302.078 75.5852C304.313 76.7595 306.046 78.5682 307.277 81.0114C308.527 83.4356 309.152 86.5227 309.152 90.2727V118H302.447V90.7273C302.447 87.2614 301.548 84.5814 299.749 82.6875C297.968 80.7746 295.497 79.8182 292.334 79.8182C290.137 79.8182 288.167 80.2822 286.425 81.2102C284.701 82.1383 283.338 83.4924 282.334 85.2727C281.349 87.053 280.857 89.2121 280.857 91.75ZM339.713 118.909C335.509 118.909 331.882 117.981 328.832 116.125C325.802 114.25 323.463 111.636 321.815 108.284C320.187 104.913 319.372 100.992 319.372 96.5227C319.372 92.053 320.187 88.1136 321.815 84.7045C323.463 81.2765 325.755 78.6061 328.69 76.6932C331.645 74.7614 335.092 73.7955 339.031 73.7955C341.304 73.7955 343.548 74.1742 345.764 74.9318C347.98 75.6894 349.997 76.9205 351.815 78.625C353.634 80.3106 355.082 82.5455 356.162 85.3295C357.241 88.1136 357.781 91.5417 357.781 95.6136V98.4545H324.145V92.6591H350.963C350.963 90.197 350.471 88 349.486 86.0682C348.52 84.1364 347.137 82.6117 345.338 81.4943C343.558 80.3769 341.455 79.8182 339.031 79.8182C336.361 79.8182 334.05 80.4811 332.099 81.8068C330.168 83.1136 328.681 84.8182 327.639 86.9205C326.598 89.0227 326.077 91.2765 326.077 93.6818V97.5455C326.077 100.841 326.645 103.634 327.781 105.926C328.937 108.199 330.537 109.932 332.582 111.125C334.628 112.299 337.005 112.886 339.713 112.886C341.474 112.886 343.065 112.64 344.486 112.148C345.925 111.636 347.166 110.879 348.207 109.875C349.249 108.852 350.054 107.583 350.622 106.068L357.099 107.886C356.418 110.083 355.272 112.015 353.662 113.682C352.052 115.33 350.063 116.617 347.696 117.545C345.329 118.455 342.668 118.909 339.713 118.909ZM384.457 118.909C380.821 118.909 377.611 117.991 374.827 116.153C372.043 114.297 369.865 111.684 368.293 108.312C366.721 104.922 365.935 100.917 365.935 96.2955C365.935 91.7121 366.721 87.7348 368.293 84.3636C369.865 80.9924 372.052 78.3883 374.855 76.5511C377.658 74.714 380.897 73.7955 384.571 73.7955C387.412 73.7955 389.656 74.2689 391.304 75.2159C392.971 76.1439 394.24 77.2045 395.111 78.3977C396.001 79.572 396.692 80.5379 397.185 81.2955H397.753V59.8182H404.457V118H397.98V111.295H397.185C396.692 112.091 395.991 113.095 395.082 114.307C394.173 115.5 392.876 116.57 391.19 117.517C389.505 118.445 387.26 118.909 384.457 118.909ZM385.366 112.886C388.056 112.886 390.329 112.186 392.185 110.784C394.041 109.364 395.452 107.403 396.418 104.903C397.384 102.384 397.866 99.4773 397.866 96.1818C397.866 92.9242 397.393 90.0739 396.446 87.6307C395.499 85.1686 394.098 83.2557 392.241 81.892C390.385 80.5095 388.094 79.8182 385.366 79.8182C382.526 79.8182 380.158 80.5473 378.264 82.0057C376.389 83.4451 374.978 85.4053 374.031 87.8864C373.103 90.3485 372.639 93.1136 372.639 96.1818C372.639 99.2879 373.113 102.11 374.06 104.648C375.026 107.167 376.446 109.174 378.321 110.67C380.215 112.148 382.563 112.886 385.366 112.886Z" fill="white"/>
<path d="M276.705 186.045C275.152 186.045 273.817 185.496 272.7 184.397C271.582 183.28 271.023 181.935 271.023 180.363C271.023 178.81 271.582 177.484 272.7 176.386C273.817 175.268 275.152 174.71 276.705 174.71C278.258 174.71 279.594 175.268 280.711 176.386C281.828 177.484 282.387 178.81 282.387 180.363C282.387 181.405 282.122 182.361 281.592 183.232C281.08 184.085 280.398 184.766 279.546 185.278C278.694 185.789 277.747 186.045 276.705 186.045ZM306.123 186.166C302.955 186.166 300.228 185.448 297.941 184.014C295.668 182.565 293.921 180.569 292.7 178.026C291.478 175.484 290.867 172.572 290.867 169.291C290.867 165.967 291.492 163.033 292.742 160.491C293.992 157.934 295.754 155.938 298.026 154.504C300.299 153.069 302.977 152.352 306.059 152.352C308.545 152.352 310.761 152.813 312.707 153.737C314.653 154.646 316.222 155.924 317.415 157.572C318.623 159.219 319.34 161.144 319.567 163.346H313.367C313.026 161.812 312.245 160.491 311.023 159.383C309.816 158.275 308.197 157.721 306.165 157.721C304.39 157.721 302.835 158.19 301.499 159.127C300.178 160.05 299.148 161.371 298.41 163.09C297.671 164.795 297.302 166.812 297.302 169.141C297.302 171.528 297.664 173.587 298.388 175.32C299.113 177.053 300.136 178.396 301.457 179.347C302.792 180.299 304.362 180.775 306.165 180.775C307.373 180.775 308.467 180.555 309.447 180.114C310.441 179.66 311.272 179.014 311.94 178.175C312.621 177.337 313.097 176.329 313.367 175.15H319.567C319.34 177.266 318.651 179.156 317.501 180.818C316.35 182.479 314.809 183.786 312.877 184.738C310.96 185.69 308.708 186.166 306.123 186.166ZM332.751 166.073V185.505H326.38V141.869H332.666V158.104H333.071C333.838 156.343 335.01 154.944 336.586 153.907C338.163 152.87 340.223 152.352 342.765 152.352C345.01 152.352 346.97 152.813 348.646 153.737C350.336 154.66 351.643 156.038 352.566 157.87C353.504 159.688 353.973 161.961 353.973 164.688V185.505H347.602V165.455C347.602 163.055 346.984 161.194 345.748 159.873C344.512 158.538 342.794 157.87 340.592 157.87C339.086 157.87 337.737 158.19 336.544 158.829C335.365 159.468 334.434 160.406 333.752 161.641C333.085 162.863 332.751 164.34 332.751 166.073ZM371.998 186.229C369.924 186.229 368.049 185.846 366.373 185.079C364.697 184.298 363.369 183.168 362.389 181.691C361.423 180.214 360.94 178.403 360.94 176.258C360.94 174.411 361.295 172.891 362.005 171.698C362.716 170.505 363.674 169.56 364.882 168.864C366.089 168.168 367.439 167.643 368.93 167.288C370.422 166.933 371.941 166.663 373.49 166.478C375.45 166.251 377.041 166.066 378.262 165.924C379.484 165.768 380.372 165.519 380.926 165.178C381.48 164.837 381.757 164.283 381.757 163.516V163.367C381.757 161.506 381.231 160.065 380.18 159.042C379.143 158.019 377.595 157.508 375.535 157.508C373.39 157.508 371.7 157.984 370.464 158.935C369.243 159.873 368.397 160.917 367.929 162.068L361.941 160.704C362.652 158.715 363.689 157.11 365.052 155.889C366.43 154.653 368.014 153.758 369.804 153.204C371.593 152.636 373.475 152.352 375.45 152.352C376.757 152.352 378.142 152.508 379.605 152.82C381.082 153.119 382.46 153.673 383.738 154.482C385.031 155.292 386.089 156.45 386.913 157.955C387.737 159.447 388.149 161.386 388.149 163.772V185.505H381.927V181.031H381.672C381.26 181.854 380.642 182.664 379.818 183.46C378.994 184.255 377.936 184.916 376.643 185.441C375.35 185.967 373.802 186.229 371.998 186.229ZM373.383 181.116C375.145 181.116 376.65 180.768 377.9 180.072C379.164 179.376 380.123 178.467 380.777 177.344C381.444 176.208 381.778 174.994 381.778 173.701V169.482C381.551 169.71 381.11 169.923 380.457 170.121C379.818 170.306 379.086 170.469 378.262 170.612C377.439 170.739 376.636 170.86 375.855 170.974C375.074 171.073 374.42 171.158 373.895 171.229C372.659 171.386 371.529 171.648 370.507 172.018C369.498 172.387 368.689 172.92 368.078 173.616C367.481 174.298 367.183 175.207 367.183 176.343C367.183 177.92 367.765 179.113 368.93 179.923C370.095 180.718 371.579 181.116 373.383 181.116ZM411.911 152.778V157.891H394.035V152.778H411.911ZM398.829 144.937H405.2V175.896C405.2 177.131 405.384 178.062 405.754 178.687C406.123 179.298 406.599 179.717 407.181 179.944C407.778 180.157 408.424 180.264 409.12 180.264C409.631 180.264 410.079 180.228 410.462 180.157C410.846 180.086 411.144 180.029 411.357 179.987L412.508 185.249C412.138 185.391 411.613 185.533 410.931 185.675C410.249 185.832 409.397 185.917 408.374 185.931C406.698 185.96 405.136 185.661 403.687 185.036C402.238 184.411 401.066 183.445 400.171 182.139C399.276 180.832 398.829 179.191 398.829 177.217V144.937Z" fill="white"/>
<path d="M225.594 135.737V161.415C225.594 172.46 234.548 181.415 245.594 181.415H271.271" stroke="white" stroke-width="3" stroke-linecap="round" stroke-linejoin="bevel" stroke-dasharray="6 6"/>
</svg>
